<svg width="838" height="471" viewBox="0 0 838 471" fill="none" xmlns="http://www.w3.org/2000/svg">
<g clip-path="url(#clip0_1459_5806)">
<mask id="mask0_1459_5806" style="mask-type:alpha" maskUnits="userSpaceOnUse" x="0" y="0" width="838" height="471">
<path d="M0 0H838V471H0V0Z" fill="white"/>
</mask>
<g mask="url(#mask0_1459_5806)">
<path fill-rule="evenodd" clip-rule="evenodd" d="M0 0H838V471H0V0Z" fill="white"/>
<g filter="url(#filter0_f_1459_5806)">
<path fill-rule="evenodd" clip-rule="evenodd" d="M334.688 103.707C334.688 95.4509 341.386 88.7578 349.649 88.7578H504.29C508.258 88.7578 512.063 90.3328 514.869 93.1364C517.675 95.94 519.251 99.7424 519.251 103.707V163.503C519.251 171.759 512.553 178.452 504.29 178.452H349.649C341.386 178.452 334.688 171.759 334.688 163.503V103.707Z" fill="#0066CC"/>
<path fill-rule="evenodd" clip-rule="evenodd" d="M334.688 103.707C334.688 95.4509 341.386 88.7578 349.649 88.7578H504.29C508.258 88.7578 512.063 90.3328 514.869 93.1364C517.675 95.94 519.251 99.7424 519.251 103.707V163.503C519.251 171.759 512.553 178.452 504.29 178.452H349.649C341.386 178.452 334.688 171.759 334.688 163.503V103.707Z" stroke="#001350" stroke-width="3" stroke-miterlimit="10" stroke-linejoin="round"/>
<path d="M372.227 116.758C370.781 116.758 369.603 116.317 368.694 115.436C367.794 114.554 367.344 113.378 367.344 111.906V111.647C367.344 110.657 367.535 109.775 367.917 109.003C368.299 108.222 368.84 107.622 369.54 107.204C370.24 106.786 371.04 106.577 371.94 106.577C373.286 106.577 374.341 107 375.105 107.845C375.877 108.69 376.264 109.889 376.264 111.443V112.519H370.003C370.094 113.164 370.353 113.682 370.781 114.073C371.208 114.455 371.749 114.645 372.404 114.645C373.413 114.645 374.204 114.277 374.777 113.541L376.059 114.986C375.668 115.549 375.136 115.985 374.463 116.294C373.791 116.603 373.045 116.758 372.227 116.758ZM371.927 108.69C371.408 108.69 370.985 108.867 370.658 109.221C370.331 109.576 370.122 110.08 370.031 110.734H373.686V110.516C373.677 109.934 373.518 109.485 373.209 109.167C372.909 108.849 372.481 108.69 371.927 108.69ZM381.513 109.685L383.163 106.754H385.973L383.177 111.565L386.082 116.581H383.272L381.513 113.487L379.767 116.581H376.943L379.862 111.565L377.066 106.754H379.889L381.513 109.685V109.685ZM390.003 116.581H387.371V106.754H390.003V116.581ZM387.221 104.206C387.221 103.815 387.352 103.493 387.616 103.238C387.88 102.984 388.239 102.857 388.694 102.857C389.139 102.857 389.494 102.984 389.757 103.238C390.03 103.493 390.167 103.815 390.167 104.206C390.167 104.606 390.03 104.933 389.757 105.187C389.485 105.442 389.126 105.569 388.68 105.569C388.244 105.569 387.889 105.442 387.616 105.187C387.352 104.933 387.221 104.606 387.221 104.206ZM397.503 113.868C397.503 113.541 397.344 113.287 397.026 113.105C396.708 112.924 396.194 112.76 395.485 112.615C393.148 112.124 391.979 111.129 391.979 109.63C391.979 108.758 392.339 108.031 393.057 107.449C393.784 106.868 394.735 106.577 395.908 106.577C397.153 106.577 398.149 106.873 398.895 107.463C399.649 108.045 400.027 108.803 400.027 109.739H397.394C397.394 109.367 397.272 109.058 397.026 108.812C396.79 108.567 396.412 108.444 395.894 108.444C395.458 108.444 395.117 108.544 394.871 108.744C394.626 108.944 394.503 109.198 394.503 109.507C394.503 109.798 394.639 110.034 394.912 110.216C395.194 110.389 395.662 110.543 396.317 110.679C396.971 110.807 397.522 110.952 397.967 111.116C399.358 111.624 400.054 112.506 400.054 113.759C400.054 114.65 399.668 115.372 398.895 115.926C398.131 116.481 397.14 116.758 395.921 116.758C395.094 116.758 394.357 116.612 393.712 116.322C393.075 116.031 392.575 115.631 392.211 115.122C391.848 114.604 391.666 114.05 391.666 113.46H394.162C394.189 113.923 394.362 114.282 394.68 114.536C394.998 114.782 395.43 114.904 395.976 114.904C396.476 114.904 396.853 114.809 397.108 114.618C397.372 114.427 397.503 114.177 397.503 113.868ZM404.894 104.342V106.754H406.571V108.676H404.894V113.582C404.894 113.946 404.962 114.209 405.098 114.373C405.235 114.527 405.503 114.604 405.903 114.604C406.194 114.604 406.448 114.582 406.667 114.536V116.526C406.158 116.681 405.63 116.758 405.085 116.758C403.239 116.758 402.298 115.831 402.261 113.978V108.676H400.829V106.754H402.261V104.342H404.894V104.342ZM410.802 116.581H408.17V106.754H410.802V116.581ZM408.02 104.206C408.02 103.815 408.152 103.493 408.416 103.238C408.679 102.984 409.038 102.857 409.493 102.857C409.939 102.857 410.293 102.984 410.557 103.238C410.83 103.493 410.966 103.815 410.966 104.206C410.966 104.606 410.83 104.933 410.557 105.187C410.284 105.442 409.925 105.569 409.479 105.569C409.043 105.569 408.688 105.442 408.416 105.187C408.152 104.933 408.02 104.606 408.02 104.206ZM415.384 106.754L415.466 107.886C416.175 107.013 417.121 106.577 418.303 106.577C419.339 106.577 420.112 106.882 420.622 107.49C421.131 108.099 421.39 109.012 421.399 110.23V116.581H418.78V110.298C418.78 109.735 418.657 109.33 418.412 109.085C418.176 108.831 417.775 108.703 417.212 108.703C416.466 108.703 415.911 109.017 415.548 109.644V116.581H412.915V106.754H415.384V106.754ZM423.015 111.593C423.015 110.084 423.374 108.871 424.092 107.954C424.811 107.036 425.779 106.577 426.998 106.577C428.08 106.577 428.921 106.945 429.521 107.681L429.63 106.754H432.003V116.253C432.003 117.117 431.808 117.866 431.417 118.502C431.026 119.138 430.476 119.62 429.766 119.947C429.057 120.283 428.23 120.451 427.284 120.451C426.557 120.451 425.852 120.306 425.17 120.015C424.488 119.733 423.97 119.365 423.615 118.911L424.774 117.303C425.429 118.039 426.225 118.407 427.161 118.407C427.861 118.407 428.403 118.221 428.784 117.848C429.175 117.475 429.371 116.949 429.371 116.267V115.736C428.762 116.417 427.966 116.758 426.984 116.758C425.802 116.758 424.843 116.299 424.106 115.381C423.379 114.455 423.015 113.228 423.015 111.702V111.593V111.593ZM425.647 111.783C425.647 112.674 425.825 113.373 426.179 113.882C426.534 114.382 427.025 114.632 427.652 114.632C428.453 114.632 429.025 114.332 429.371 113.732V109.603C429.016 109.003 428.448 108.703 427.666 108.703C427.039 108.703 426.543 108.962 426.179 109.48C425.825 109.989 425.647 110.757 425.647 111.783V111.783ZM445.072 110.271C445.072 111.57 444.84 112.71 444.376 113.691C443.912 114.673 443.253 115.431 442.398 115.967C441.544 116.494 440.562 116.758 439.452 116.758C438.352 116.758 437.37 116.494 436.506 115.967C435.651 115.44 434.988 114.691 434.515 113.719C434.042 112.737 433.801 111.611 433.792 110.339V109.685C433.792 108.385 434.028 107.241 434.501 106.25C434.974 105.26 435.638 104.501 436.493 103.974C437.347 103.438 438.325 103.17 439.425 103.17C440.534 103.17 441.516 103.438 442.371 103.974C443.226 104.501 443.89 105.26 444.362 106.25C444.835 107.241 445.072 108.381 445.072 109.671V110.271V110.271ZM442.303 109.671C442.303 108.281 442.053 107.227 441.553 106.509C441.062 105.791 440.357 105.432 439.439 105.432C438.52 105.432 437.811 105.787 437.311 106.495C436.82 107.204 436.57 108.244 436.561 109.616V110.271C436.561 111.615 436.806 112.66 437.297 113.405C437.797 114.15 438.516 114.523 439.452 114.523C440.371 114.523 441.075 114.164 441.566 113.446C442.057 112.728 442.303 111.683 442.303 110.311V109.671V109.671ZM455.744 111.756C455.744 113.328 455.407 114.554 454.734 115.436C454.061 116.317 453.12 116.758 451.911 116.758C450.847 116.758 449.997 116.349 449.36 115.531L449.238 116.581H446.878V102.625H449.51V107.627C450.111 106.927 450.906 106.577 451.897 106.577C453.098 106.577 454.039 107.018 454.721 107.899C455.403 108.771 455.744 110.007 455.744 111.606V111.756V111.756ZM453.111 111.565C453.111 110.575 452.952 109.853 452.634 109.398C452.325 108.935 451.856 108.703 451.229 108.703C450.392 108.703 449.82 109.044 449.51 109.725V113.61C449.829 114.3 450.411 114.645 451.256 114.645C452.102 114.645 452.657 114.227 452.92 113.391C453.048 112.992 453.111 112.383 453.111 111.565V111.565ZM460.142 106.754V117.112C460.142 118.202 459.851 119.047 459.269 119.647C458.696 120.247 457.869 120.546 456.787 120.546C456.332 120.546 455.9 120.496 455.491 120.397V118.311C455.8 118.366 456.073 118.393 456.309 118.393C457.11 118.393 457.51 117.975 457.51 117.139V106.754H460.142ZM457.291 104.206C457.291 103.815 457.423 103.493 457.687 103.238C457.951 102.984 458.31 102.857 458.764 102.857C459.219 102.857 459.578 102.984 459.842 103.238C460.106 103.493 460.238 103.815 460.238 104.206C460.238 104.606 460.101 104.933 459.828 105.187C459.565 105.442 459.21 105.569 458.764 105.569C458.328 105.569 457.973 105.442 457.701 105.187C457.428 104.933 457.291 104.606 457.291 104.206ZM466.724 116.758C465.278 116.758 464.101 116.317 463.192 115.436C462.291 114.554 461.841 113.378 461.841 111.906V111.647C461.841 110.657 462.032 109.775 462.414 109.003C462.796 108.222 463.337 107.622 464.037 107.204C464.737 106.786 465.537 106.577 466.438 106.577C467.783 106.577 468.838 107 469.602 107.845C470.375 108.69 470.761 109.889 470.761 111.443V112.519H464.501C464.592 113.164 464.851 113.682 465.278 114.073C465.706 114.455 466.247 114.645 466.901 114.645C467.911 114.645 468.702 114.277 469.275 113.541L470.557 114.986C470.166 115.549 469.634 115.985 468.961 116.294C468.288 116.603 467.542 116.758 466.724 116.758ZM466.424 108.69C465.906 108.69 465.483 108.867 465.156 109.221C464.828 109.576 464.619 110.08 464.528 110.734H468.183V110.516C468.174 109.934 468.015 109.485 467.706 109.167C467.406 108.849 466.979 108.69 466.424 108.69ZM476.351 114.645C476.833 114.645 477.224 114.514 477.524 114.25C477.833 113.978 477.992 113.623 478.001 113.187H480.47C480.461 113.85 480.279 114.459 479.925 115.013C479.57 115.568 479.079 115.999 478.451 116.308C477.833 116.608 477.147 116.758 476.392 116.758C474.992 116.758 473.882 116.313 473.064 115.422C472.255 114.532 471.85 113.296 471.85 111.715V111.552C471.85 110.034 472.25 108.826 473.05 107.926C473.86 107.027 474.969 106.577 476.378 106.577C477.606 106.577 478.592 106.927 479.338 107.627C480.084 108.317 480.461 109.244 480.47 110.407H478.001C477.992 109.898 477.833 109.485 477.524 109.167C477.224 108.849 476.828 108.69 476.337 108.69C475.719 108.69 475.255 108.912 474.946 109.357C474.637 109.803 474.482 110.525 474.482 111.524V111.797C474.482 112.815 474.637 113.546 474.946 113.991C475.255 114.427 475.724 114.645 476.351 114.645ZM485.119 104.342V106.754H486.796V108.676H485.119V113.582C485.119 113.946 485.187 114.209 485.323 114.373C485.46 114.527 485.728 114.604 486.128 114.604C486.419 114.604 486.674 114.582 486.892 114.536V116.526C486.383 116.681 485.855 116.758 485.31 116.758C483.464 116.758 482.523 115.831 482.486 113.978V108.676H481.054V106.754H482.486V104.342H485.119V104.342Z" fill="white"/>
<path d="M405.083 146.064C405.083 147.099 404.847 147.931 404.374 148.558C403.901 149.185 403.265 149.498 402.464 149.498C401.773 149.498 401.219 149.262 400.8 148.789V151.978H399V142.616H400.678L400.732 143.283C401.169 142.756 401.742 142.493 402.451 142.493C403.278 142.493 403.924 142.802 404.388 143.42C404.851 144.038 405.083 144.887 405.083 145.968V146.064ZM403.283 145.927C403.283 145.3 403.169 144.819 402.942 144.483C402.724 144.137 402.401 143.965 401.973 143.965C401.41 143.965 401.019 144.183 400.8 144.619V147.372C401.019 147.817 401.414 148.04 401.987 148.04C402.851 148.04 403.283 147.336 403.283 145.927ZM409.994 144.319C409.749 144.283 409.535 144.265 409.353 144.265C408.671 144.265 408.221 144.496 408.003 144.96V149.375H406.203V142.616H407.908L407.962 143.433C408.317 142.806 408.817 142.493 409.462 142.493C409.663 142.493 409.849 142.52 410.022 142.575L409.994 144.319ZM410.358 145.941C410.358 145.269 410.485 144.669 410.74 144.142C411.003 143.615 411.376 143.211 411.858 142.929C412.349 142.638 412.913 142.493 413.549 142.493C414.468 142.493 415.213 142.775 415.786 143.338C416.359 143.892 416.682 144.646 416.755 145.6L416.768 146.064C416.768 147.099 416.477 147.931 415.895 148.558C415.313 149.185 414.536 149.498 413.563 149.498C412.59 149.498 411.813 149.189 411.231 148.571C410.649 147.944 410.358 147.095 410.358 146.023V145.941ZM412.172 146.064C412.172 146.709 412.29 147.199 412.526 147.536C412.772 147.872 413.117 148.04 413.563 148.04C413.999 148.04 414.34 147.876 414.586 147.549C414.831 147.213 414.954 146.677 414.954 145.941C414.954 145.305 414.831 144.814 414.586 144.469C414.34 144.124 413.995 143.951 413.549 143.951C413.113 143.951 412.772 144.124 412.526 144.469C412.29 144.814 412.172 145.346 412.172 146.064ZM423.961 146.064C423.961 147.099 423.725 147.931 423.252 148.558C422.779 149.185 422.143 149.498 421.342 149.498C420.651 149.498 420.097 149.262 419.678 148.789V151.978H417.878V142.616H419.556L419.61 143.283C420.047 142.756 420.62 142.493 421.329 142.493C422.156 142.493 422.802 142.802 423.266 143.42C423.729 144.038 423.961 144.887 423.961 145.968V146.064ZM422.161 145.927C422.161 145.3 422.047 144.819 421.82 144.483C421.602 144.137 421.279 143.965 420.851 143.965C420.288 143.965 419.897 144.183 419.678 144.619V147.372C419.897 147.817 420.292 148.04 420.865 148.04C421.729 148.04 422.161 147.336 422.161 145.927ZM428.19 149.498C427.199 149.498 426.39 149.194 425.763 148.585C425.144 147.976 424.835 147.168 424.835 146.159V145.982C424.835 145.31 424.967 144.705 425.231 144.169C425.494 143.633 425.863 143.22 426.336 142.929C426.817 142.638 427.368 142.493 427.986 142.493C428.913 142.493 429.641 142.788 430.168 143.379C430.705 143.96 430.973 144.783 430.973 145.846V146.582H426.663C426.727 147.027 426.904 147.381 427.195 147.645C427.486 147.908 427.859 148.04 428.313 148.04C429.004 148.04 429.545 147.79 429.936 147.29L430.823 148.285C430.55 148.667 430.182 148.966 429.718 149.185C429.263 149.394 428.754 149.498 428.19 149.498ZM427.986 143.951C427.622 143.951 427.327 144.074 427.099 144.319C426.881 144.564 426.745 144.91 426.69 145.355H429.2V145.219C429.191 144.819 429.082 144.51 428.872 144.292C428.663 144.065 428.368 143.951 427.986 143.951ZM435.788 144.319C435.542 144.283 435.329 144.265 435.147 144.265C434.465 144.265 434.015 144.496 433.796 144.96V149.375H431.996V142.616H433.701L433.756 143.433C434.11 142.806 434.61 142.493 435.256 142.493C435.456 142.493 435.642 142.52 435.815 142.575L435.788 144.319ZM439.13 140.967V142.616H440.289V143.951H439.13V147.317C439.13 147.563 439.176 147.74 439.266 147.849C439.366 147.958 439.553 148.013 439.826 148.013C440.026 148.013 440.203 147.999 440.358 147.972V149.334C440.003 149.443 439.639 149.498 439.266 149.498C438.003 149.498 437.357 148.862 437.33 147.59V143.951H436.348V142.616H437.33V140.967H439.13ZM443.821 146.827L445.062 142.616H446.999L444.285 150.425L444.135 150.779C443.735 151.66 443.071 152.101 442.144 152.101C441.88 152.101 441.612 152.06 441.339 151.978V150.616L441.612 150.629C441.957 150.629 442.212 150.575 442.375 150.466C442.548 150.366 442.68 150.193 442.771 149.948L442.989 149.389L440.616 142.616H442.566L443.821 146.827V146.827ZM452.971 147.508H449.684L449.056 149.375H447.065L450.448 140.285H452.193L455.59 149.375H453.598L452.971 147.508ZM450.188 145.982H452.466L451.321 142.588L450.188 145.982Z" fill="white"/>
<path d="M405.302 161.763C405.302 162.799 405.065 163.63 404.593 164.257C404.12 164.884 403.483 165.197 402.683 165.197C401.992 165.197 401.437 164.961 401.019 164.489V167.678H399.219V158.315H400.896L400.951 158.983C401.387 158.456 401.96 158.192 402.669 158.192C403.497 158.192 404.143 158.501 404.606 159.119C405.07 159.737 405.302 160.586 405.302 161.667V161.763ZM403.501 161.627C403.501 161 403.388 160.518 403.161 160.182C402.942 159.837 402.619 159.664 402.192 159.664C401.628 159.664 401.237 159.882 401.019 160.318V163.071C401.237 163.516 401.633 163.739 402.206 163.739C403.07 163.739 403.501 163.035 403.501 161.627ZM410.213 160.018C409.968 159.982 409.754 159.964 409.572 159.964C408.89 159.964 408.44 160.196 408.222 160.659V165.075H406.421V158.315H408.126L408.181 159.133C408.536 158.506 409.036 158.192 409.681 158.192C409.881 158.192 410.068 158.219 410.24 158.274L410.213 160.018ZM410.576 161.64C410.576 160.968 410.704 160.368 410.958 159.841C411.222 159.314 411.595 158.91 412.077 158.628C412.568 158.338 413.132 158.192 413.768 158.192C414.686 158.192 415.432 158.474 416.005 159.037C416.578 159.591 416.901 160.345 416.973 161.299L416.987 161.763C416.987 162.799 416.696 163.63 416.114 164.257C415.532 164.884 414.755 165.197 413.782 165.197C412.809 165.197 412.031 164.888 411.449 164.27C410.867 163.644 410.576 162.794 410.576 161.722V161.64ZM412.39 161.763C412.39 162.408 412.509 162.899 412.745 163.235C412.991 163.571 413.336 163.739 413.782 163.739C414.218 163.739 414.559 163.575 414.805 163.248C415.05 162.912 415.173 162.376 415.173 161.64C415.173 161.004 415.05 160.514 414.805 160.168C414.559 159.823 414.214 159.65 413.768 159.65C413.332 159.65 412.991 159.823 412.745 160.168C412.509 160.514 412.39 161.045 412.39 161.763ZM424.18 161.763C424.18 162.799 423.943 163.63 423.471 164.257C422.998 164.884 422.361 165.197 421.561 165.197C420.87 165.197 420.315 164.961 419.897 164.489V167.678H418.097V158.315H419.774L419.829 158.983C420.265 158.456 420.838 158.192 421.548 158.192C422.375 158.192 423.021 158.501 423.484 159.119C423.948 159.737 424.18 160.586 424.18 161.667V161.763ZM422.38 161.627C422.38 161 422.266 160.518 422.039 160.182C421.82 159.837 421.498 159.664 421.07 159.664C420.506 159.664 420.115 159.882 419.897 160.318V163.071C420.115 163.516 420.511 163.739 421.084 163.739C421.948 163.739 422.38 163.035 422.38 161.627ZM428.409 165.197C427.418 165.197 426.609 164.893 425.981 164.284C425.363 163.675 425.054 162.867 425.054 161.858V161.681C425.054 161.009 425.186 160.405 425.449 159.868C425.713 159.332 426.081 158.919 426.554 158.628C427.036 158.338 427.586 158.192 428.205 158.192C429.132 158.192 429.86 158.487 430.387 159.078C430.923 159.66 431.192 160.482 431.192 161.545V162.281H426.882C426.945 162.726 427.123 163.08 427.414 163.344C427.705 163.607 428.077 163.739 428.532 163.739C429.223 163.739 429.764 163.489 430.155 162.989L431.042 163.984C430.769 164.366 430.401 164.666 429.937 164.884C429.482 165.093 428.973 165.197 428.409 165.197ZM428.205 159.65C427.841 159.65 427.545 159.773 427.318 160.018C427.1 160.264 426.963 160.609 426.909 161.054H429.419V160.918C429.409 160.518 429.3 160.209 429.091 159.991C428.882 159.764 428.587 159.65 428.205 159.65ZM436.007 160.018C435.761 159.982 435.547 159.964 435.365 159.964C434.684 159.964 434.233 160.196 434.015 160.659V165.075H432.215V158.315H433.92L433.974 159.133C434.329 158.506 434.829 158.192 435.475 158.192C435.675 158.192 435.861 158.219 436.034 158.274L436.007 160.018ZM439.349 156.666V158.315H440.508V159.65H439.349V163.017C439.349 163.262 439.394 163.439 439.485 163.548C439.585 163.657 439.772 163.712 440.044 163.712C440.244 163.712 440.422 163.698 440.576 163.671V165.034C440.222 165.143 439.858 165.197 439.485 165.197C438.221 165.197 437.576 164.561 437.548 163.289V159.65H436.566V158.315H437.548V156.666H439.349ZM444.04 162.526L445.281 158.315H447.218L444.504 166.124L444.354 166.478C443.954 167.36 443.29 167.8 442.362 167.8C442.099 167.8 441.83 167.759 441.558 167.678V166.315L441.83 166.328C442.176 166.328 442.431 166.274 442.594 166.165C442.767 166.065 442.899 165.892 442.99 165.647L443.208 165.088L440.835 158.315H442.785L444.04 162.526V162.526ZM448.061 165.075V155.984H451.239C452.339 155.984 453.176 156.198 453.749 156.625C454.322 157.043 454.608 157.661 454.608 158.478C454.608 158.924 454.494 159.319 454.267 159.664C454.04 160 453.722 160.246 453.312 160.4C453.776 160.518 454.14 160.754 454.404 161.109C454.676 161.463 454.813 161.895 454.813 162.403C454.813 163.276 454.531 163.939 453.967 164.393C453.412 164.838 452.621 165.065 451.594 165.075H448.061ZM449.93 161.122V163.575H451.539C451.976 163.575 452.317 163.471 452.562 163.262C452.817 163.044 452.944 162.753 452.944 162.39C452.944 161.554 452.512 161.131 451.648 161.122H449.93ZM449.93 159.8H451.321C452.267 159.782 452.74 159.405 452.74 158.669C452.74 158.251 452.617 157.951 452.371 157.77C452.135 157.588 451.758 157.497 451.239 157.497H449.93V159.8Z" fill="white"/>
</g>
<path fill-rule="evenodd" clip-rule="evenodd" d="M334.688 101.965C334.688 93.7087 341.386 87.0156 349.649 87.0156H504.29C508.258 87.0156 512.063 88.5907 514.869 91.3942C517.675 94.1978 519.251 98.0002 519.251 101.965V161.761C519.251 170.017 512.553 176.71 504.29 176.71H349.649C341.386 176.71 334.688 170.017 334.688 161.761V101.965Z" fill="#0066CC"/>
<path fill-rule="evenodd" clip-rule="evenodd" d="M334.688 101.965C334.688 93.7087 341.386 87.0156 349.649 87.0156H504.29C508.258 87.0156 512.063 88.5907 514.869 91.3942C517.675 94.1978 519.251 98.0002 519.251 101.965V161.761C519.251 170.017 512.553 176.71 504.29 176.71H349.649C341.386 176.71 334.688 170.017 334.688 161.761V101.965Z" stroke="#001350" stroke-width="3" stroke-miterlimit="10" stroke-linejoin="round"/>
<path d="M372.227 115.016C370.781 115.016 369.603 114.575 368.694 113.694C367.794 112.812 367.344 111.636 367.344 110.164V109.905C367.344 108.915 367.535 108.033 367.917 107.261C368.299 106.48 368.84 105.88 369.54 105.462C370.24 105.044 371.04 104.835 371.94 104.835C373.286 104.835 374.341 105.258 375.105 106.103C375.877 106.947 376.264 108.147 376.264 109.7V110.777H370.003C370.094 111.422 370.353 111.94 370.781 112.331C371.208 112.712 371.749 112.903 372.404 112.903C373.413 112.903 374.204 112.535 374.777 111.799L376.059 113.244C375.668 113.807 375.136 114.243 374.463 114.552C373.791 114.861 373.045 115.016 372.227 115.016ZM371.927 106.947C371.408 106.947 370.985 107.125 370.658 107.479C370.331 107.833 370.122 108.338 370.031 108.992H373.686V108.774C373.677 108.192 373.518 107.742 373.209 107.424C372.909 107.106 372.481 106.947 371.927 106.947ZM381.513 107.942L383.163 105.012H385.973L383.177 109.823L386.082 114.838H383.272L381.513 111.745L379.767 114.838H376.943L379.862 109.823L377.066 105.012H379.889L381.513 107.942V107.942ZM390.003 114.838H387.371V105.012H390.003V114.838ZM387.221 102.464C387.221 102.073 387.352 101.75 387.616 101.496C387.88 101.242 388.239 101.115 388.694 101.115C389.139 101.115 389.494 101.242 389.757 101.496C390.03 101.75 390.167 102.073 390.167 102.464C390.167 102.863 390.03 103.191 389.757 103.445C389.485 103.699 389.126 103.827 388.68 103.827C388.244 103.827 387.889 103.699 387.616 103.445C387.352 103.191 387.221 102.863 387.221 102.464ZM397.503 112.126C397.503 111.799 397.344 111.545 397.026 111.363C396.708 111.181 396.194 111.018 395.485 110.872C393.148 110.382 391.979 109.387 391.979 107.888C391.979 107.016 392.339 106.289 393.057 105.707C393.784 105.126 394.735 104.835 395.908 104.835C397.153 104.835 398.149 105.13 398.895 105.721C399.649 106.302 400.027 107.061 400.027 107.997H397.394C397.394 107.624 397.272 107.315 397.026 107.07C396.79 106.825 396.412 106.702 395.894 106.702C395.458 106.702 395.117 106.802 394.871 107.002C394.626 107.202 394.503 107.456 394.503 107.765C394.503 108.056 394.639 108.292 394.912 108.474C395.194 108.647 395.662 108.801 396.317 108.937C396.971 109.064 397.522 109.21 397.967 109.373C399.358 109.882 400.054 110.763 400.054 112.017C400.054 112.908 399.668 113.63 398.895 114.184C398.131 114.738 397.14 115.016 395.921 115.016C395.094 115.016 394.357 114.87 393.712 114.579C393.075 114.289 392.575 113.889 392.211 113.38C391.848 112.862 391.666 112.308 391.666 111.717H394.162C394.189 112.181 394.362 112.54 394.68 112.794C394.998 113.039 395.43 113.162 395.976 113.162C396.476 113.162 396.853 113.067 397.108 112.876C397.372 112.685 397.503 112.435 397.503 112.126ZM404.894 102.6V105.012H406.571V106.934H404.894V111.84C404.894 112.204 404.962 112.467 405.098 112.631C405.235 112.785 405.503 112.862 405.903 112.862C406.194 112.862 406.448 112.84 406.667 112.794V114.784C406.158 114.938 405.63 115.016 405.085 115.016C403.239 115.016 402.298 114.089 402.261 112.235V106.934H400.829V105.012H402.261V102.6H404.894V102.6ZM410.802 114.838H408.17V105.012H410.802V114.838ZM408.02 102.464C408.02 102.073 408.152 101.75 408.416 101.496C408.679 101.242 409.038 101.115 409.493 101.115C409.939 101.115 410.293 101.242 410.557 101.496C410.83 101.75 410.966 102.073 410.966 102.464C410.966 102.863 410.83 103.191 410.557 103.445C410.284 103.699 409.925 103.827 409.479 103.827C409.043 103.827 408.688 103.699 408.416 103.445C408.152 103.191 408.02 102.863 408.02 102.464ZM415.384 105.012L415.466 106.143C416.175 105.271 417.121 104.835 418.303 104.835C419.339 104.835 420.112 105.139 420.622 105.748C421.131 106.357 421.39 107.27 421.399 108.488V114.838H418.78V108.556C418.78 107.992 418.657 107.588 418.412 107.343C418.176 107.088 417.775 106.961 417.212 106.961C416.466 106.961 415.911 107.275 415.548 107.901V114.838H412.915V105.012H415.384V105.012ZM423.015 109.85C423.015 108.342 423.374 107.129 424.092 106.212C424.811 105.294 425.779 104.835 426.998 104.835C428.08 104.835 428.921 105.203 429.521 105.939L429.63 105.012H432.003V114.511C432.003 115.374 431.808 116.124 431.417 116.76C431.026 117.396 430.476 117.878 429.766 118.205C429.057 118.541 428.23 118.709 427.284 118.709C426.557 118.709 425.852 118.563 425.17 118.273C424.488 117.991 423.97 117.623 423.615 117.169L424.774 115.561C425.429 116.297 426.225 116.665 427.161 116.665C427.861 116.665 428.403 116.478 428.784 116.106C429.175 115.733 429.371 115.206 429.371 114.525V113.993C428.762 114.675 427.966 115.016 426.984 115.016C425.802 115.016 424.843 114.557 424.106 113.639C423.379 112.712 423.015 111.486 423.015 109.959V109.85V109.85ZM425.647 110.041C425.647 110.932 425.825 111.631 426.179 112.14C426.534 112.64 427.025 112.89 427.652 112.89C428.453 112.89 429.025 112.59 429.371 111.99V107.861C429.016 107.261 428.448 106.961 427.666 106.961C427.039 106.961 426.543 107.22 426.179 107.738C425.825 108.247 425.647 109.014 425.647 110.041V110.041ZM445.072 108.528C445.072 109.828 444.84 110.968 444.376 111.949C443.912 112.93 443.253 113.689 442.398 114.225C441.544 114.752 440.562 115.016 439.452 115.016C438.352 115.016 437.37 114.752 436.506 114.225C435.651 113.698 434.988 112.949 434.515 111.976C434.042 110.995 433.801 109.869 433.792 108.597V107.942C433.792 106.643 434.028 105.498 434.501 104.508C434.974 103.518 435.638 102.759 436.493 102.232C437.347 101.696 438.325 101.428 439.425 101.428C440.534 101.428 441.516 101.696 442.371 102.232C443.226 102.759 443.89 103.518 444.362 104.508C444.835 105.498 445.072 106.639 445.072 107.929V108.528V108.528ZM442.303 107.929C442.303 106.539 442.053 105.485 441.553 104.767C441.062 104.049 440.357 103.69 439.439 103.69C438.52 103.69 437.811 104.045 437.311 104.753C436.82 105.462 436.57 106.502 436.561 107.874V108.528C436.561 109.873 436.806 110.918 437.297 111.663C437.797 112.408 438.516 112.78 439.452 112.78C440.371 112.78 441.075 112.422 441.566 111.704C442.057 110.986 442.303 109.941 442.303 108.569V107.929V107.929ZM455.744 110.014C455.744 111.586 455.407 112.812 454.734 113.694C454.061 114.575 453.12 115.016 451.911 115.016C450.847 115.016 449.997 114.607 449.36 113.789L449.238 114.838H446.878V100.883H449.51V105.884C450.111 105.185 450.906 104.835 451.897 104.835C453.098 104.835 454.039 105.276 454.721 106.157C455.403 107.029 455.744 108.265 455.744 109.864V110.014V110.014ZM453.111 109.823C453.111 108.833 452.952 108.11 452.634 107.656C452.325 107.193 451.856 106.961 451.229 106.961C450.392 106.961 449.82 107.302 449.51 107.983V111.867C449.829 112.558 450.411 112.903 451.256 112.903C452.102 112.903 452.657 112.485 452.92 111.649C453.048 111.25 453.111 110.641 453.111 109.823V109.823ZM460.142 105.012V115.37C460.142 116.46 459.851 117.305 459.269 117.905C458.696 118.504 457.869 118.804 456.787 118.804C456.332 118.804 455.9 118.754 455.491 118.654V116.569C455.8 116.624 456.073 116.651 456.309 116.651C457.11 116.651 457.51 116.233 457.51 115.397V105.012H460.142ZM457.291 102.464C457.291 102.073 457.423 101.75 457.687 101.496C457.951 101.242 458.31 101.115 458.764 101.115C459.219 101.115 459.578 101.242 459.842 101.496C460.106 101.75 460.238 102.073 460.238 102.464C460.238 102.863 460.101 103.191 459.828 103.445C459.565 103.699 459.21 103.827 458.764 103.827C458.328 103.827 457.973 103.699 457.701 103.445C457.428 103.191 457.291 102.863 457.291 102.464ZM466.724 115.016C465.278 115.016 464.101 114.575 463.192 113.694C462.291 112.812 461.841 111.636 461.841 110.164V109.905C461.841 108.915 462.032 108.033 462.414 107.261C462.796 106.48 463.337 105.88 464.037 105.462C464.737 105.044 465.537 104.835 466.438 104.835C467.783 104.835 468.838 105.258 469.602 106.103C470.375 106.947 470.761 108.147 470.761 109.7V110.777H464.501C464.592 111.422 464.851 111.94 465.278 112.331C465.706 112.712 466.247 112.903 466.901 112.903C467.911 112.903 468.702 112.535 469.275 111.799L470.557 113.244C470.166 113.807 469.634 114.243 468.961 114.552C468.288 114.861 467.542 115.016 466.724 115.016ZM466.424 106.947C465.906 106.947 465.483 107.125 465.156 107.479C464.828 107.833 464.619 108.338 464.528 108.992H468.183V108.774C468.174 108.192 468.015 107.742 467.706 107.424C467.406 107.106 466.979 106.947 466.424 106.947ZM476.351 112.903C476.833 112.903 477.224 112.771 477.524 112.508C477.833 112.235 477.992 111.881 478.001 111.445H480.47C480.461 112.108 480.279 112.717 479.925 113.271C479.57 113.825 479.079 114.257 478.451 114.566C477.833 114.866 477.147 115.016 476.392 115.016C474.992 115.016 473.882 114.57 473.064 113.68C472.255 112.79 471.85 111.554 471.85 109.973V109.809C471.85 108.292 472.25 107.084 473.05 106.184C473.86 105.285 474.969 104.835 476.378 104.835C477.606 104.835 478.592 105.185 479.338 105.884C480.084 106.575 480.461 107.502 480.47 108.665H478.001C477.992 108.156 477.833 107.742 477.524 107.424C477.224 107.106 476.828 106.947 476.337 106.947C475.719 106.947 475.255 107.17 474.946 107.615C474.637 108.06 474.482 108.783 474.482 109.782V110.055C474.482 111.072 474.637 111.804 474.946 112.249C475.255 112.685 475.724 112.903 476.351 112.903ZM485.119 102.6V105.012H486.796V106.934H485.119V111.84C485.119 112.204 485.187 112.467 485.323 112.631C485.46 112.785 485.728 112.862 486.128 112.862C486.419 112.862 486.674 112.84 486.892 112.794V114.784C486.383 114.938 485.855 115.016 485.31 115.016C483.464 115.016 482.523 114.089 482.486 112.235V106.934H481.054V105.012H482.486V102.6H485.119V102.6Z" fill="white"/>
<path d="M405.083 144.321C405.083 145.357 404.847 146.189 404.374 146.815C403.901 147.442 403.265 147.756 402.464 147.756C401.773 147.756 401.219 147.52 400.8 147.047V150.236H399V140.873H400.678L400.732 141.541C401.169 141.014 401.742 140.751 402.451 140.751C403.278 140.751 403.924 141.06 404.388 141.678C404.851 142.295 405.083 143.145 405.083 144.226V144.321ZM403.283 144.185C403.283 143.558 403.169 143.077 402.942 142.741C402.724 142.395 402.401 142.223 401.973 142.223C401.41 142.223 401.019 142.441 400.8 142.877V145.63C401.019 146.075 401.414 146.298 401.987 146.298C402.851 146.298 403.283 145.593 403.283 144.185ZM409.994 142.577C409.749 142.541 409.535 142.522 409.353 142.522C408.671 142.522 408.221 142.754 408.003 143.218V147.633H406.203V140.873H407.908L407.962 141.691C408.317 141.064 408.817 140.751 409.462 140.751C409.663 140.751 409.849 140.778 410.022 140.833L409.994 142.577ZM410.358 144.199C410.358 143.526 410.485 142.927 410.74 142.4C411.003 141.873 411.376 141.469 411.858 141.187C412.349 140.896 412.913 140.751 413.549 140.751C414.468 140.751 415.213 141.032 415.786 141.596C416.359 142.15 416.682 142.904 416.755 143.858L416.768 144.321C416.768 145.357 416.477 146.189 415.895 146.815C415.313 147.442 414.536 147.756 413.563 147.756C412.59 147.756 411.813 147.447 411.231 146.829C410.649 146.202 410.358 145.353 410.358 144.281V144.199ZM412.172 144.321C412.172 144.967 412.29 145.457 412.526 145.793C412.772 146.129 413.117 146.298 413.563 146.298C413.999 146.298 414.34 146.134 414.586 145.807C414.831 145.471 414.954 144.935 414.954 144.199C414.954 143.563 414.831 143.072 414.586 142.727C414.34 142.382 413.995 142.209 413.549 142.209C413.113 142.209 412.772 142.382 412.526 142.727C412.29 143.072 412.172 143.604 412.172 144.321ZM423.961 144.321C423.961 145.357 423.725 146.189 423.252 146.815C422.779 147.442 422.143 147.756 421.342 147.756C420.651 147.756 420.097 147.52 419.678 147.047V150.236H417.878V140.873H419.556L419.61 141.541C420.047 141.014 420.62 140.751 421.329 140.751C422.156 140.751 422.802 141.06 423.266 141.678C423.729 142.295 423.961 143.145 423.961 144.226V144.321ZM422.161 144.185C422.161 143.558 422.047 143.077 421.82 142.741C421.602 142.395 421.279 142.223 420.851 142.223C420.288 142.223 419.897 142.441 419.678 142.877V145.63C419.897 146.075 420.292 146.298 420.865 146.298C421.729 146.298 422.161 145.593 422.161 144.185ZM428.19 147.756C427.199 147.756 426.39 147.451 425.763 146.843C425.144 146.234 424.835 145.425 424.835 144.417V144.24C424.835 143.567 424.967 142.963 425.231 142.427C425.494 141.891 425.863 141.478 426.336 141.187C426.817 140.896 427.368 140.751 427.986 140.751C428.913 140.751 429.641 141.046 430.168 141.637C430.705 142.218 430.973 143.04 430.973 144.103V144.839H426.663C426.727 145.285 426.904 145.639 427.195 145.902C427.486 146.166 427.859 146.298 428.313 146.298C429.004 146.298 429.545 146.048 429.936 145.548L430.823 146.543C430.55 146.924 430.182 147.224 429.718 147.442C429.263 147.651 428.754 147.756 428.19 147.756ZM427.986 142.209C427.622 142.209 427.327 142.332 427.099 142.577C426.881 142.822 426.745 143.168 426.69 143.613H429.2V143.476C429.191 143.077 429.082 142.768 428.872 142.55C428.663 142.323 428.368 142.209 427.986 142.209ZM435.788 142.577C435.542 142.541 435.329 142.522 435.147 142.522C434.465 142.522 434.015 142.754 433.796 143.218V147.633H431.996V140.873H433.701L433.756 141.691C434.11 141.064 434.61 140.751 435.256 140.751C435.456 140.751 435.642 140.778 435.815 140.833L435.788 142.577ZM439.13 139.224V140.873H440.289V142.209H439.13V145.575C439.13 145.821 439.176 145.998 439.266 146.107C439.366 146.216 439.553 146.27 439.826 146.27C440.026 146.27 440.203 146.257 440.358 146.229V147.592C440.003 147.701 439.639 147.756 439.266 147.756C438.003 147.756 437.357 147.12 437.33 145.848V142.209H436.348V140.873H437.33V139.224H439.13ZM443.821 145.085L445.062 140.873H446.999L444.285 148.683L444.135 149.037C443.735 149.918 443.071 150.359 442.144 150.359C441.88 150.359 441.612 150.318 441.339 150.236V148.873L441.612 148.887C441.957 148.887 442.212 148.832 442.375 148.723C442.548 148.623 442.68 148.451 442.771 148.206L442.989 147.647L440.616 140.873H442.566L443.821 145.085V145.085ZM452.971 145.766H449.684L449.056 147.633H447.065L450.448 138.543H452.193L455.59 147.633H453.598L452.971 145.766ZM450.188 144.24H452.466L451.321 140.846L450.188 144.24Z" fill="white"/>
<path d="M405.302 160.021C405.302 161.056 405.065 161.888 404.593 162.515C404.12 163.142 403.483 163.455 402.683 163.455C401.992 163.455 401.437 163.219 401.019 162.746V165.935H399.219V156.573H400.896L400.951 157.24C401.387 156.713 401.96 156.45 402.669 156.45C403.497 156.45 404.143 156.759 404.606 157.377C405.07 157.995 405.302 158.844 405.302 159.925V160.021ZM403.501 159.884C403.501 159.257 403.388 158.776 403.161 158.44C402.942 158.095 402.619 157.922 402.192 157.922C401.628 157.922 401.237 158.14 401.019 158.576V161.329C401.237 161.774 401.633 161.997 402.206 161.997C403.07 161.997 403.501 161.293 403.501 159.884ZM410.213 158.276C409.968 158.24 409.754 158.222 409.572 158.222C408.89 158.222 408.44 158.453 408.222 158.917V163.332H406.421V156.573H408.126L408.181 157.39C408.536 156.763 409.036 156.45 409.681 156.45C409.881 156.45 410.068 156.477 410.24 156.532L410.213 158.276ZM410.576 159.898C410.576 159.226 410.704 158.626 410.958 158.099C411.222 157.572 411.595 157.168 412.077 156.886C412.568 156.595 413.132 156.45 413.768 156.45C414.686 156.45 415.432 156.732 416.005 157.295C416.578 157.849 416.901 158.603 416.973 159.557L416.987 160.021C416.987 161.056 416.696 161.888 416.114 162.515C415.532 163.142 414.755 163.455 413.782 163.455C412.809 163.455 412.031 163.146 411.449 162.528C410.867 161.901 410.576 161.052 410.576 159.98V159.898ZM412.39 160.021C412.39 160.666 412.509 161.156 412.745 161.493C412.991 161.829 413.336 161.997 413.782 161.997C414.218 161.997 414.559 161.833 414.805 161.506C415.05 161.17 415.173 160.634 415.173 159.898C415.173 159.262 415.05 158.771 414.805 158.426C414.559 158.081 414.214 157.908 413.768 157.908C413.332 157.908 412.991 158.081 412.745 158.426C412.509 158.771 412.39 159.303 412.39 160.021ZM424.18 160.021C424.18 161.056 423.943 161.888 423.471 162.515C422.998 163.142 422.361 163.455 421.561 163.455C420.87 163.455 420.315 163.219 419.897 162.746V165.935H418.097V156.573H419.774L419.829 157.24C420.265 156.713 420.838 156.45 421.548 156.45C422.375 156.45 423.021 156.759 423.484 157.377C423.948 157.995 424.18 158.844 424.18 159.925V160.021ZM422.38 159.884C422.38 159.257 422.266 158.776 422.039 158.44C421.82 158.095 421.498 157.922 421.07 157.922C420.506 157.922 420.115 158.14 419.897 158.576V161.329C420.115 161.774 420.511 161.997 421.084 161.997C421.948 161.997 422.38 161.293 422.38 159.884ZM428.409 163.455C427.418 163.455 426.609 163.151 425.981 162.542C425.363 161.933 425.054 161.125 425.054 160.116V159.939C425.054 159.267 425.186 158.662 425.449 158.126C425.713 157.59 426.081 157.177 426.554 156.886C427.036 156.595 427.586 156.45 428.205 156.45C429.132 156.45 429.86 156.745 430.387 157.336C430.923 157.917 431.192 158.74 431.192 159.803V160.539H426.882C426.945 160.984 427.123 161.338 427.414 161.602C427.705 161.865 428.077 161.997 428.532 161.997C429.223 161.997 429.764 161.747 430.155 161.247L431.042 162.242C430.769 162.624 430.401 162.924 429.937 163.142C429.482 163.351 428.973 163.455 428.409 163.455ZM428.205 157.908C427.841 157.908 427.545 158.031 427.318 158.276C427.1 158.522 426.963 158.867 426.909 159.312H429.419V159.176C429.409 158.776 429.3 158.467 429.091 158.249C428.882 158.022 428.587 157.908 428.205 157.908ZM436.007 158.276C435.761 158.24 435.547 158.222 435.365 158.222C434.684 158.222 434.233 158.453 434.015 158.917V163.332H432.215V156.573H433.92L433.974 157.39C434.329 156.763 434.829 156.45 435.475 156.45C435.675 156.45 435.861 156.477 436.034 156.532L436.007 158.276ZM439.349 154.924V156.573H440.508V157.908H439.349V161.274C439.349 161.52 439.394 161.697 439.485 161.806C439.585 161.915 439.772 161.97 440.044 161.97C440.244 161.97 440.422 161.956 440.576 161.929V163.291C440.222 163.401 439.858 163.455 439.485 163.455C438.221 163.455 437.576 162.819 437.548 161.547V157.908H436.566V156.573H437.548V154.924H439.349ZM444.04 160.784L445.281 156.573H447.218L444.504 164.382L444.354 164.736C443.954 165.617 443.29 166.058 442.362 166.058C442.099 166.058 441.83 166.017 441.558 165.935V164.573L441.83 164.586C442.176 164.586 442.431 164.532 442.594 164.423C442.767 164.323 442.899 164.15 442.99 163.905L443.208 163.346L440.835 156.573H442.785L444.04 160.784V160.784ZM448.061 163.332V154.242H451.239C452.339 154.242 453.176 154.456 453.749 154.883C454.322 155.301 454.608 155.918 454.608 156.736C454.608 157.181 454.494 157.577 454.267 157.922C454.04 158.258 453.722 158.503 453.312 158.658C453.776 158.776 454.14 159.012 454.404 159.366C454.676 159.721 454.813 160.152 454.813 160.661C454.813 161.533 454.531 162.197 453.967 162.651C453.412 163.096 452.621 163.323 451.594 163.332H448.061ZM449.93 159.38V161.833H451.539C451.976 161.833 452.317 161.729 452.562 161.52C452.817 161.302 452.944 161.011 452.944 160.648C452.944 159.812 452.512 159.389 451.648 159.38H449.93ZM449.93 158.058H451.321C452.267 158.04 452.74 157.663 452.74 156.927C452.74 156.509 452.617 156.209 452.371 156.028C452.135 155.846 451.758 155.755 451.239 155.755H449.93V158.058Z" fill="white"/>
<g filter="url(#filter1_f_1459_5806)">
<path fill-rule="evenodd" clip-rule="evenodd" d="M334.688 325.659C334.688 319.024 340.071 313.645 346.712 313.645H507.227C510.416 313.645 513.474 314.91 515.729 317.163C517.984 319.417 519.251 322.473 519.251 325.659V373.715C519.251 380.351 513.868 385.73 507.227 385.73H346.712C340.071 385.73 334.688 380.351 334.688 373.715V325.659Z" fill="#0094FF"/>
<path fill-rule="evenodd" clip-rule="evenodd" d="M334.688 325.659C334.688 319.024 340.071 313.645 346.712 313.645H507.227C510.416 313.645 513.474 314.91 515.729 317.163C517.984 319.417 519.251 322.473 519.251 325.659V373.715C519.251 380.351 513.868 385.73 507.227 385.73H346.712C340.071 385.73 334.688 380.351 334.688 373.715V325.659Z" stroke="#001350" stroke-width="3" stroke-miterlimit="10" stroke-linejoin="round"/>
<path d="M390.602 330.684L390.683 331.774C391.374 330.929 392.316 330.507 393.507 330.507C394.771 330.507 395.639 331.002 396.112 331.992C396.803 331.002 397.789 330.507 399.072 330.507C400.135 330.507 400.926 330.816 401.445 331.434C401.972 332.052 402.236 332.983 402.236 334.228V340.51H399.59V334.241C399.59 333.687 399.481 333.283 399.262 333.028C399.044 332.765 398.662 332.633 398.117 332.633C397.326 332.633 396.78 333.01 396.48 333.764V340.51H393.861V334.255C393.861 333.682 393.748 333.269 393.52 333.015C393.302 332.76 392.92 332.633 392.375 332.633C391.629 332.633 391.093 332.942 390.765 333.56V340.51H388.133V330.684H390.602ZM407.92 336.79L409.747 330.684H412.557L408.602 342.037L408.383 342.555C407.801 343.836 406.833 344.476 405.478 344.476C405.096 344.476 404.71 344.422 404.319 344.313V342.323H404.714C405.214 342.323 405.587 342.246 405.833 342.091C406.078 341.946 406.269 341.696 406.406 341.342L406.719 340.537L403.269 330.684H406.092L407.92 336.79ZM424.644 334.2C424.644 335.5 424.412 336.64 423.948 337.621C423.484 338.602 422.825 339.361 421.97 339.897C421.116 340.424 420.134 340.687 419.024 340.687C417.924 340.687 416.942 340.424 416.078 339.897C415.223 339.37 414.56 338.62 414.087 337.648C413.614 336.667 413.373 335.54 413.364 334.268V333.614C413.364 332.315 413.6 331.17 414.073 330.18C414.546 329.19 415.21 328.431 416.064 327.904C416.919 327.368 417.897 327.1 418.997 327.1C420.106 327.1 421.088 327.368 421.943 327.904C422.798 328.431 423.462 329.19 423.934 330.18C424.407 331.17 424.644 332.31 424.644 333.601V334.2ZM421.875 333.601C421.875 332.211 421.625 331.157 421.125 330.439C420.634 329.721 419.929 329.362 419.011 329.362C418.092 329.362 417.383 329.716 416.883 330.425C416.392 331.134 416.142 332.174 416.133 333.546V334.2C416.133 335.545 416.378 336.59 416.869 337.335C417.369 338.08 418.088 338.452 419.024 338.452C419.943 338.452 420.647 338.093 421.138 337.376C421.629 336.658 421.875 335.613 421.875 334.241V333.601ZM435.316 335.686C435.316 337.258 434.979 338.484 434.306 339.365C433.633 340.247 432.692 340.687 431.483 340.687C430.419 340.687 429.569 340.279 428.932 339.461L428.81 340.51H426.45V326.555H429.082V331.556C429.682 330.857 430.478 330.507 431.469 330.507C432.669 330.507 433.611 330.948 434.293 331.829C434.975 332.701 435.316 333.937 435.316 335.536V335.686ZM432.683 335.495C432.683 334.505 432.524 333.782 432.206 333.328C431.897 332.865 431.428 332.633 430.801 332.633C429.964 332.633 429.392 332.974 429.082 333.655V337.539C429.401 338.23 429.983 338.575 430.828 338.575C431.674 338.575 432.228 338.157 432.492 337.321C432.619 336.921 432.683 336.313 432.683 335.495ZM439.714 330.684V341.042C439.714 342.132 439.423 342.977 438.841 343.577C438.268 344.176 437.441 344.476 436.359 344.476C435.904 344.476 435.472 344.426 435.063 344.326V342.241C435.372 342.296 435.645 342.323 435.881 342.323C436.681 342.323 437.082 341.905 437.082 341.069V330.684H439.714ZM436.863 328.136C436.863 327.745 436.995 327.422 437.259 327.168C437.523 326.914 437.882 326.786 438.336 326.786C438.791 326.786 439.15 326.914 439.414 327.168C439.678 327.422 439.809 327.745 439.809 328.136C439.809 328.535 439.673 328.862 439.4 329.117C439.137 329.371 438.782 329.498 438.336 329.498C437.9 329.498 437.545 329.371 437.272 329.117C437 328.862 436.863 328.535 436.863 328.136ZM446.296 340.687C444.85 340.687 443.673 340.247 442.763 339.365C441.863 338.484 441.413 337.308 441.413 335.836V335.577C441.413 334.586 441.604 333.705 441.986 332.933C442.368 332.151 442.909 331.552 443.609 331.134C444.309 330.716 445.109 330.507 446.01 330.507C447.355 330.507 448.41 330.929 449.174 331.774C449.947 332.619 450.333 333.819 450.333 335.372V336.449H444.073C444.164 337.094 444.423 337.612 444.85 338.003C445.278 338.384 445.819 338.575 446.473 338.575C447.483 338.575 448.274 338.207 448.847 337.471L450.129 338.916C449.738 339.479 449.206 339.915 448.533 340.224C447.86 340.533 447.114 340.687 446.296 340.687V340.687ZM445.996 332.619C445.478 332.619 445.055 332.797 444.727 333.151C444.4 333.505 444.191 334.009 444.1 334.664H447.755V334.446C447.746 333.864 447.587 333.414 447.278 333.096C446.978 332.778 446.551 332.619 445.996 332.619V332.619ZM455.923 338.575C456.405 338.575 456.796 338.443 457.096 338.18C457.405 337.907 457.564 337.553 457.573 337.117H460.042C460.033 337.78 459.851 338.389 459.496 338.943C459.142 339.497 458.651 339.929 458.023 340.238C457.405 340.537 456.719 340.687 455.964 340.687C454.564 340.687 453.454 340.242 452.636 339.352C451.827 338.461 451.422 337.226 451.422 335.645V335.481C451.422 333.964 451.822 332.756 452.622 331.856C453.431 330.957 454.541 330.507 455.95 330.507C457.178 330.507 458.164 330.857 458.91 331.556C459.656 332.247 460.033 333.174 460.042 334.337H457.573C457.564 333.828 457.405 333.414 457.096 333.096C456.796 332.778 456.4 332.619 455.909 332.619C455.291 332.619 454.827 332.842 454.518 333.287C454.209 333.732 454.054 334.455 454.054 335.454V335.727C454.054 336.744 454.209 337.476 454.518 337.921C454.827 338.357 455.296 338.575 455.923 338.575ZM464.691 328.272V330.684H466.368V332.606H464.691V337.512C464.691 337.875 464.759 338.139 464.895 338.302C465.032 338.457 465.3 338.534 465.7 338.534C465.991 338.534 466.245 338.511 466.464 338.466V340.456C465.955 340.61 465.427 340.687 464.882 340.687C463.036 340.687 462.095 339.761 462.058 337.907V332.606H460.626V330.684H462.058V328.272H464.691Z" fill="white"/>
<path d="M405.2 369.995C405.2 371.031 404.964 371.862 404.491 372.489C404.018 373.116 403.382 373.429 402.582 373.429C401.891 373.429 401.336 373.193 400.918 372.721V375.91H399.117V366.547H400.795L400.849 367.215C401.286 366.688 401.859 366.424 402.568 366.424C403.395 366.424 404.041 366.733 404.505 367.351C404.968 367.969 405.2 368.818 405.2 369.899V369.995ZM403.4 369.859C403.4 369.232 403.286 368.75 403.059 368.414C402.841 368.069 402.518 367.896 402.091 367.896C401.527 367.896 401.136 368.114 400.918 368.55V371.303C401.136 371.748 401.531 371.971 402.104 371.971C402.968 371.971 403.4 371.267 403.4 369.859ZM410.112 368.25C409.866 368.214 409.652 368.196 409.471 368.196C408.789 368.196 408.338 368.428 408.12 368.891V373.307H406.32V366.547H408.025L408.079 367.365C408.434 366.738 408.934 366.424 409.58 366.424C409.78 366.424 409.966 366.451 410.139 366.506L410.112 368.25ZM410.475 369.872C410.475 369.2 410.602 368.6 410.857 368.073C411.12 367.546 411.493 367.142 411.975 366.86C412.466 366.57 413.03 366.424 413.666 366.424C414.585 366.424 415.33 366.706 415.903 367.269C416.476 367.823 416.799 368.578 416.872 369.532L416.885 369.995C416.885 371.031 416.594 371.862 416.012 372.489C415.43 373.116 414.653 373.429 413.68 373.429C412.707 373.429 411.93 373.12 411.348 372.503C410.766 371.876 410.475 371.026 410.475 369.954V369.872ZM412.289 369.995C412.289 370.64 412.407 371.131 412.644 371.467C412.889 371.803 413.235 371.971 413.68 371.971C414.117 371.971 414.458 371.807 414.703 371.48C414.949 371.144 415.071 370.608 415.071 369.872C415.071 369.236 414.949 368.746 414.703 368.4C414.458 368.055 414.112 367.882 413.666 367.882C413.23 367.882 412.889 368.055 412.644 368.4C412.407 368.746 412.289 369.277 412.289 369.995ZM424.078 369.995C424.078 371.031 423.842 371.862 423.369 372.489C422.896 373.116 422.26 373.429 421.46 373.429C420.769 373.429 420.214 373.193 419.796 372.721V375.91H417.995V366.547H419.673L419.727 367.215C420.164 366.688 420.737 366.424 421.446 366.424C422.273 366.424 422.919 366.733 423.383 367.351C423.846 367.969 424.078 368.818 424.078 369.899V369.995ZM422.278 369.859C422.278 369.232 422.164 368.75 421.937 368.414C421.719 368.069 421.396 367.896 420.969 367.896C420.405 367.896 420.014 368.114 419.796 368.55V371.303C420.014 371.748 420.409 371.971 420.982 371.971C421.846 371.971 422.278 371.267 422.278 369.859ZM428.308 373.429C427.317 373.429 426.507 373.125 425.88 372.516C425.262 371.907 424.952 371.099 424.952 370.09V369.913C424.952 369.241 425.084 368.637 425.348 368.101C425.612 367.564 425.98 367.151 426.453 366.86C426.935 366.57 427.485 366.424 428.103 366.424C429.031 366.424 429.758 366.72 430.285 367.31C430.822 367.892 431.09 368.714 431.09 369.777V370.513H426.78C426.844 370.958 427.021 371.312 427.312 371.576C427.603 371.839 427.976 371.971 428.43 371.971C429.121 371.971 429.662 371.721 430.053 371.221L430.94 372.216C430.667 372.598 430.299 372.898 429.835 373.116C429.381 373.325 428.871 373.429 428.308 373.429ZM428.103 367.882C427.739 367.882 427.444 368.005 427.217 368.25C426.998 368.496 426.862 368.841 426.807 369.286H429.317V369.15C429.308 368.75 429.199 368.441 428.99 368.223C428.78 367.996 428.485 367.882 428.103 367.882ZM435.905 368.25C435.659 368.214 435.446 368.196 435.264 368.196C434.582 368.196 434.132 368.428 433.914 368.891V373.307H432.113V366.547H433.818L433.873 367.365C434.227 366.738 434.727 366.424 435.373 366.424C435.573 366.424 435.759 366.451 435.932 366.506L435.905 368.25ZM439.247 364.898V366.547H440.407V367.882H439.247V371.249C439.247 371.494 439.293 371.671 439.384 371.78C439.484 371.889 439.67 371.944 439.943 371.944C440.143 371.944 440.32 371.93 440.475 371.903V373.266C440.12 373.375 439.756 373.429 439.384 373.429C438.12 373.429 437.474 372.793 437.447 371.521V367.882H436.465V366.547H437.447V364.898H439.247ZM443.938 370.758L445.18 366.547H447.116L444.402 374.356L444.252 374.71C443.852 375.592 443.188 376.032 442.261 376.032C441.997 376.032 441.729 375.991 441.456 375.91V374.547L441.729 374.56C442.074 374.56 442.329 374.506 442.493 374.397C442.665 374.297 442.797 374.124 442.888 373.879L443.106 373.32L440.733 366.547H442.684L443.938 370.758ZM455.093 370.281C455.02 371.253 454.657 372.021 454.002 372.584C453.356 373.148 452.502 373.429 451.438 373.429C450.265 373.429 449.342 373.039 448.669 372.257C448.005 371.467 447.673 370.39 447.673 369.027V368.468C447.673 367.596 447.828 366.829 448.137 366.165C448.446 365.493 448.887 364.98 449.46 364.625C450.033 364.271 450.697 364.094 451.451 364.094C452.506 364.094 453.352 364.375 453.988 364.939C454.634 365.502 455.007 366.288 455.107 367.296H453.238C453.193 366.715 453.029 366.292 452.747 366.029C452.465 365.766 452.033 365.634 451.451 365.634C450.833 365.634 450.369 365.856 450.06 366.302C449.751 366.747 449.592 367.442 449.583 368.387V369.068C449.583 370.049 449.728 370.767 450.019 371.221C450.319 371.676 450.792 371.903 451.438 371.903C452.011 371.903 452.438 371.771 452.72 371.508C453.011 371.244 453.179 370.835 453.224 370.281H455.093Z" fill="white"/>
</g>
<path fill-rule="evenodd" clip-rule="evenodd" d="M334.688 323.913C334.688 317.278 340.071 311.898 346.712 311.898H507.227C510.416 311.898 513.474 313.164 515.729 315.417C517.984 317.671 519.251 320.726 519.251 323.913V371.969C519.251 378.605 513.868 383.984 507.227 383.984H346.712C340.071 383.984 334.688 378.605 334.688 371.969V323.913Z" fill="#0094FF"/>
<path fill-rule="evenodd" clip-rule="evenodd" d="M334.688 323.913C334.688 317.278 340.071 311.898 346.712 311.898H507.227C510.416 311.898 513.474 313.164 515.729 315.417C517.984 317.671 519.251 320.726 519.251 323.913V371.969C519.251 378.605 513.868 383.984 507.227 383.984H346.712C340.071 383.984 334.688 378.605 334.688 371.969V323.913Z" stroke="#001350" stroke-width="3" stroke-miterlimit="10" stroke-linejoin="round"/>
<path d="M390.602 328.938L390.683 330.028C391.374 329.183 392.316 328.761 393.507 328.761C394.771 328.761 395.639 329.256 396.112 330.246C396.803 329.256 397.789 328.761 399.072 328.761C400.135 328.761 400.926 329.07 401.445 329.688C401.972 330.305 402.236 331.237 402.236 332.481V338.764H399.59V332.495C399.59 331.941 399.481 331.537 399.262 331.282C399.044 331.019 398.662 330.887 398.117 330.887C397.326 330.887 396.78 331.264 396.48 332.018V338.764H393.861V332.509C393.861 331.936 393.748 331.523 393.52 331.268C393.302 331.014 392.92 330.887 392.375 330.887C391.629 330.887 391.093 331.196 390.765 331.814V338.764H388.133V328.938H390.602ZM407.92 335.044L409.747 328.938H412.557L408.602 340.291L408.383 340.808C407.801 342.089 406.833 342.73 405.478 342.73C405.096 342.73 404.71 342.676 404.319 342.566V340.577H404.714C405.214 340.577 405.587 340.5 405.833 340.345C406.078 340.2 406.269 339.95 406.406 339.595L406.719 338.791L403.269 328.938H406.092L407.92 335.044ZM424.644 332.454C424.644 333.753 424.412 334.894 423.948 335.875C423.484 336.856 422.825 337.615 421.97 338.151C421.116 338.678 420.134 338.941 419.024 338.941C417.924 338.941 416.942 338.678 416.078 338.151C415.223 337.624 414.56 336.874 414.087 335.902C413.614 334.921 413.373 333.794 413.364 332.522V331.868C413.364 330.569 413.6 329.424 414.073 328.434C414.546 327.443 415.21 326.685 416.064 326.158C416.919 325.622 417.897 325.354 418.997 325.354C420.106 325.354 421.088 325.622 421.943 326.158C422.798 326.685 423.462 327.443 423.934 328.434C424.407 329.424 424.644 330.564 424.644 331.855V332.454ZM421.875 331.855C421.875 330.464 421.625 329.41 421.125 328.693C420.634 327.975 419.929 327.616 419.011 327.616C418.092 327.616 417.383 327.97 416.883 328.679C416.392 329.388 416.142 330.428 416.133 331.8V332.454C416.133 333.799 416.378 334.844 416.869 335.589C417.369 336.334 418.088 336.706 419.024 336.706C419.943 336.706 420.647 336.347 421.138 335.63C421.629 334.912 421.875 333.867 421.875 332.495V331.855ZM435.316 333.94C435.316 335.511 434.979 336.738 434.306 337.619C433.633 338.501 432.692 338.941 431.483 338.941C430.419 338.941 429.569 338.532 428.932 337.715L428.81 338.764H426.45V324.809H429.082V329.81C429.682 329.111 430.478 328.761 431.469 328.761C432.669 328.761 433.611 329.202 434.293 330.083C434.975 330.955 435.316 332.191 435.316 333.79V333.94ZM432.683 333.749C432.683 332.759 432.524 332.036 432.206 331.582C431.897 331.119 431.428 330.887 430.801 330.887C429.964 330.887 429.392 331.228 429.082 331.909V335.793C429.401 336.484 429.983 336.829 430.828 336.829C431.674 336.829 432.228 336.411 432.492 335.575C432.619 335.175 432.683 334.567 432.683 333.749ZM439.714 328.938V339.296C439.714 340.386 439.423 341.231 438.841 341.831C438.268 342.43 437.441 342.73 436.359 342.73C435.904 342.73 435.472 342.68 435.063 342.58V340.495C435.372 340.549 435.645 340.577 435.881 340.577C436.681 340.577 437.082 340.159 437.082 339.323V328.938H439.714ZM436.863 326.389C436.863 325.999 436.995 325.676 437.259 325.422C437.523 325.167 437.882 325.04 438.336 325.04C438.791 325.04 439.15 325.167 439.414 325.422C439.678 325.676 439.809 325.999 439.809 326.389C439.809 326.789 439.673 327.116 439.4 327.371C439.137 327.625 438.782 327.752 438.336 327.752C437.9 327.752 437.545 327.625 437.272 327.371C437 327.116 436.863 326.789 436.863 326.389ZM446.296 338.941C444.85 338.941 443.673 338.501 442.763 337.619C441.863 336.738 441.413 335.561 441.413 334.09V333.831C441.413 332.84 441.604 331.959 441.986 331.187C442.368 330.405 442.909 329.806 443.609 329.388C444.309 328.97 445.109 328.761 446.01 328.761C447.355 328.761 448.41 329.183 449.174 330.028C449.947 330.873 450.333 332.073 450.333 333.626V334.703H444.073C444.164 335.348 444.423 335.866 444.85 336.257C445.278 336.638 445.819 336.829 446.473 336.829C447.483 336.829 448.274 336.461 448.847 335.725L450.129 337.17C449.738 337.733 449.206 338.169 448.533 338.478C447.86 338.787 447.114 338.941 446.296 338.941V338.941ZM445.996 330.873C445.478 330.873 445.055 331.05 444.727 331.405C444.4 331.759 444.191 332.263 444.1 332.918H447.755V332.699C447.746 332.118 447.587 331.668 447.278 331.35C446.978 331.032 446.551 330.873 445.996 330.873V330.873ZM455.923 336.829C456.405 336.829 456.796 336.697 457.096 336.434C457.405 336.161 457.564 335.807 457.573 335.371H460.042C460.033 336.034 459.851 336.643 459.496 337.197C459.142 337.751 458.651 338.183 458.023 338.492C457.405 338.791 456.719 338.941 455.964 338.941C454.564 338.941 453.454 338.496 452.636 337.606C451.827 336.715 451.422 335.48 451.422 333.899V333.735C451.422 332.218 451.822 331.01 452.622 330.11C453.431 329.211 454.541 328.761 455.95 328.761C457.178 328.761 458.164 329.111 458.91 329.81C459.656 330.501 460.033 331.427 460.042 332.59H457.573C457.564 332.082 457.405 331.668 457.096 331.35C456.796 331.032 456.4 330.873 455.909 330.873C455.291 330.873 454.827 331.096 454.518 331.541C454.209 331.986 454.054 332.709 454.054 333.708V333.981C454.054 334.998 454.209 335.73 454.518 336.175C454.827 336.611 455.296 336.829 455.923 336.829ZM464.691 326.526V328.938H466.368V330.86H464.691V335.766C464.691 336.129 464.759 336.393 464.895 336.556C465.032 336.711 465.3 336.788 465.7 336.788C465.991 336.788 466.245 336.765 466.464 336.72V338.71C465.955 338.864 465.427 338.941 464.882 338.941C463.036 338.941 462.095 338.015 462.058 336.161V330.86H460.626V328.938H462.058V326.526H464.691Z" fill="white"/>
<path d="M405.2 368.249C405.2 369.285 404.964 370.116 404.491 370.743C404.018 371.37 403.382 371.683 402.582 371.683C401.891 371.683 401.336 371.447 400.918 370.974V374.164H399.117V364.801H400.795L400.849 365.469C401.286 364.942 401.859 364.678 402.568 364.678C403.395 364.678 404.041 364.987 404.505 365.605C404.968 366.223 405.2 367.072 405.2 368.153V368.249ZM403.4 368.112C403.4 367.486 403.286 367.004 403.059 366.668C402.841 366.323 402.518 366.15 402.091 366.15C401.527 366.15 401.136 366.368 400.918 366.804V369.557C401.136 370.002 401.531 370.225 402.104 370.225C402.968 370.225 403.4 369.521 403.4 368.112ZM410.112 366.504C409.866 366.468 409.652 366.45 409.471 366.45C408.789 366.45 408.338 366.682 408.12 367.145V371.561H406.32V364.801H408.025L408.079 365.618C408.434 364.992 408.934 364.678 409.58 364.678C409.78 364.678 409.966 364.705 410.139 364.76L410.112 366.504ZM410.475 368.126C410.475 367.454 410.602 366.854 410.857 366.327C411.12 365.8 411.493 365.396 411.975 365.114C412.466 364.823 413.03 364.678 413.666 364.678C414.585 364.678 415.33 364.96 415.903 365.523C416.476 366.077 416.799 366.831 416.872 367.785L416.885 368.249C416.885 369.285 416.594 370.116 416.012 370.743C415.43 371.37 414.653 371.683 413.68 371.683C412.707 371.683 411.93 371.374 411.348 370.756C410.766 370.13 410.475 369.28 410.475 368.208V368.126ZM412.289 368.249C412.289 368.894 412.407 369.384 412.644 369.721C412.889 370.057 413.235 370.225 413.68 370.225C414.117 370.225 414.458 370.061 414.703 369.734C414.949 369.398 415.071 368.862 415.071 368.126C415.071 367.49 414.949 367 414.703 366.654C414.458 366.309 414.112 366.136 413.666 366.136C413.23 366.136 412.889 366.309 412.644 366.654C412.407 367 412.289 367.531 412.289 368.249ZM424.078 368.249C424.078 369.285 423.842 370.116 423.369 370.743C422.896 371.37 422.26 371.683 421.46 371.683C420.769 371.683 420.214 371.447 419.796 370.974V374.164H417.995V364.801H419.673L419.727 365.469C420.164 364.942 420.737 364.678 421.446 364.678C422.273 364.678 422.919 364.987 423.383 365.605C423.846 366.223 424.078 367.072 424.078 368.153V368.249ZM422.278 368.112C422.278 367.486 422.164 367.004 421.937 366.668C421.719 366.323 421.396 366.15 420.969 366.15C420.405 366.15 420.014 366.368 419.796 366.804V369.557C420.014 370.002 420.409 370.225 420.982 370.225C421.846 370.225 422.278 369.521 422.278 368.112ZM428.308 371.683C427.317 371.683 426.507 371.379 425.88 370.77C425.262 370.161 424.952 369.353 424.952 368.344V368.167C424.952 367.495 425.084 366.89 425.348 366.354C425.612 365.818 425.98 365.405 426.453 365.114C426.935 364.823 427.485 364.678 428.103 364.678C429.031 364.678 429.758 364.973 430.285 365.564C430.822 366.145 431.09 366.968 431.09 368.031V368.767H426.78C426.844 369.212 427.021 369.566 427.312 369.83C427.603 370.093 427.976 370.225 428.43 370.225C429.121 370.225 429.662 369.975 430.053 369.475L430.94 370.47C430.667 370.852 430.299 371.152 429.835 371.37C429.381 371.579 428.871 371.683 428.308 371.683ZM428.103 366.136C427.739 366.136 427.444 366.259 427.217 366.504C426.998 366.75 426.862 367.095 426.807 367.54H429.317V367.404C429.308 367.004 429.199 366.695 428.99 366.477C428.78 366.25 428.485 366.136 428.103 366.136ZM435.905 366.504C435.659 366.468 435.446 366.45 435.264 366.45C434.582 366.45 434.132 366.682 433.914 367.145V371.561H432.113V364.801H433.818L433.873 365.618C434.227 364.992 434.727 364.678 435.373 364.678C435.573 364.678 435.759 364.705 435.932 364.76L435.905 366.504ZM439.247 363.152V364.801H440.407V366.136H439.247V369.503C439.247 369.748 439.293 369.925 439.384 370.034C439.484 370.143 439.67 370.198 439.943 370.198C440.143 370.198 440.32 370.184 440.475 370.157V371.52C440.12 371.629 439.756 371.683 439.384 371.683C438.12 371.683 437.474 371.047 437.447 369.775V366.136H436.465V364.801H437.447V363.152H439.247ZM443.938 369.012L445.18 364.801H447.116L444.402 372.61L444.252 372.964C443.852 373.846 443.188 374.286 442.261 374.286C441.997 374.286 441.729 374.245 441.456 374.164V372.801L441.729 372.814C442.074 372.814 442.329 372.76 442.493 372.651C442.665 372.551 442.797 372.378 442.888 372.133L443.106 371.574L440.733 364.801H442.684L443.938 369.012ZM455.093 368.535C455.02 369.507 454.657 370.275 454.002 370.838C453.356 371.402 452.502 371.683 451.438 371.683C450.265 371.683 449.342 371.292 448.669 370.511C448.005 369.721 447.673 368.644 447.673 367.281V366.722C447.673 365.85 447.828 365.082 448.137 364.419C448.446 363.747 448.887 363.234 449.46 362.879C450.033 362.525 450.697 362.348 451.451 362.348C452.506 362.348 453.352 362.629 453.988 363.193C454.634 363.756 455.007 364.542 455.107 365.55H453.238C453.193 364.969 453.029 364.546 452.747 364.283C452.465 364.019 452.033 363.888 451.451 363.888C450.833 363.888 450.369 364.11 450.06 364.555C449.751 365.001 449.592 365.696 449.583 366.641V367.322C449.583 368.303 449.728 369.021 450.019 369.475C450.319 369.93 450.792 370.157 451.438 370.157C452.011 370.157 452.438 370.025 452.72 369.762C453.011 369.498 453.179 369.089 453.224 368.535H455.093Z" fill="white"/>
<path d="M426.969 176.711V301.432" stroke="#001350" stroke-width="2" stroke-miterlimit="10" stroke-linejoin="round" stroke-dasharray="8 6"/>
<path fill-rule="evenodd" clip-rule="evenodd" d="M424.086 301.43L426.97 309.346L429.853 301.43H424.086Z" fill="#001350" stroke="#001350" stroke-width="2" stroke-miterlimit="10"/>
<path d="M333.829 244.237H332.015V237.477H333.829V244.237ZM331.906 235.732C331.906 235.46 331.997 235.237 332.179 235.065C332.361 234.892 332.606 234.806 332.916 234.806C333.225 234.806 333.47 234.892 333.652 235.065C333.834 235.237 333.925 235.46 333.925 235.732C333.925 236.005 333.834 236.232 333.652 236.414C333.47 236.587 333.225 236.673 332.916 236.673C332.615 236.673 332.37 236.587 332.179 236.414C331.997 236.232 331.906 236.005 331.906 235.732ZM338.967 242.37C338.967 242.151 338.858 241.979 338.64 241.852C338.422 241.724 338.072 241.611 337.59 241.511C335.98 241.175 335.176 240.493 335.176 239.467C335.176 238.867 335.426 238.367 335.926 237.968C336.426 237.559 337.076 237.354 337.876 237.354C338.731 237.354 339.417 237.559 339.936 237.968C340.454 238.367 340.713 238.89 340.713 239.535H338.899C338.899 239.28 338.817 239.071 338.654 238.908C338.49 238.735 338.231 238.649 337.876 238.649C337.567 238.649 337.331 238.717 337.167 238.853C337.003 238.99 336.921 239.162 336.921 239.371C336.921 239.571 337.012 239.735 337.194 239.862C337.385 239.98 337.703 240.084 338.149 240.175C338.604 240.266 338.986 240.366 339.295 240.475C340.249 240.83 340.727 241.438 340.727 242.301C340.727 242.91 340.463 243.405 339.936 243.787C339.408 244.168 338.726 244.359 337.89 244.359C337.317 244.359 336.812 244.259 336.376 244.059C335.939 243.86 335.594 243.582 335.339 243.228C335.094 242.874 334.971 242.492 334.971 242.083H336.676C336.694 242.41 336.812 242.66 337.031 242.833C337.258 242.996 337.553 243.078 337.917 243.078C338.263 243.078 338.522 243.015 338.695 242.887C338.876 242.751 338.967 242.579 338.967 242.37ZM351.159 240.925C351.159 241.961 350.923 242.792 350.45 243.419C349.977 244.046 349.34 244.359 348.54 244.359C347.849 244.359 347.295 244.123 346.876 243.651V246.84H345.076V237.477H346.754L346.808 238.145C347.245 237.618 347.817 237.354 348.527 237.354C349.354 237.354 350 237.663 350.463 238.281C350.927 238.899 351.159 239.748 351.159 240.83V240.925ZM349.359 240.789C349.359 240.162 349.245 239.68 349.018 239.344C348.799 238.999 348.477 238.826 348.049 238.826C347.486 238.826 347.095 239.044 346.876 239.48V242.233C347.095 242.678 347.49 242.901 348.063 242.901C348.927 242.901 349.359 242.197 349.359 240.789ZM356.07 239.18C355.825 239.144 355.611 239.126 355.429 239.126C354.747 239.126 354.297 239.358 354.079 239.821V244.237H352.279V237.477H353.984L354.038 238.295C354.393 237.668 354.893 237.354 355.538 237.354C355.738 237.354 355.925 237.382 356.098 237.436L356.07 239.18ZM356.434 240.802C356.434 240.13 356.561 239.53 356.815 239.003C357.079 238.476 357.452 238.072 357.934 237.79C358.425 237.5 358.989 237.354 359.625 237.354C360.544 237.354 361.289 237.636 361.862 238.199C362.435 238.753 362.758 239.508 362.83 240.462L362.844 240.925C362.844 241.961 362.553 242.792 361.971 243.419C361.389 244.046 360.612 244.359 359.639 244.359C358.666 244.359 357.888 244.05 357.306 243.433C356.725 242.806 356.434 241.956 356.434 240.884V240.802ZM358.248 240.925C358.248 241.57 358.366 242.061 358.602 242.397C358.848 242.733 359.193 242.901 359.639 242.901C360.075 242.901 360.416 242.737 360.662 242.41C360.907 242.074 361.03 241.538 361.03 240.802C361.03 240.166 360.907 239.676 360.662 239.33C360.416 238.985 360.071 238.812 359.625 238.812C359.189 238.812 358.848 238.985 358.602 239.33C358.366 239.676 358.248 240.207 358.248 240.925ZM366.109 235.828V237.477H367.268V238.812H366.109V242.179C366.109 242.424 366.154 242.601 366.245 242.71C366.345 242.819 366.532 242.874 366.805 242.874C367.005 242.874 367.182 242.86 367.336 242.833V244.196C366.982 244.305 366.618 244.359 366.245 244.359C364.981 244.359 364.336 243.723 364.309 242.451V238.812H363.327V237.477H364.309V235.828H366.109ZM367.803 240.802C367.803 240.13 367.93 239.53 368.185 239.003C368.448 238.476 368.821 238.072 369.303 237.79C369.794 237.5 370.358 237.354 370.994 237.354C371.913 237.354 372.658 237.636 373.231 238.199C373.804 238.753 374.127 239.508 374.2 240.462L374.213 240.925C374.213 241.961 373.922 242.792 373.34 243.419C372.758 244.046 371.981 244.359 371.008 244.359C370.035 244.359 369.258 244.05 368.676 243.433C368.094 242.806 367.803 241.956 367.803 240.884V240.802ZM369.617 240.925C369.617 241.57 369.735 242.061 369.971 242.397C370.217 242.733 370.563 242.901 371.008 242.901C371.445 242.901 371.786 242.737 372.031 242.41C372.277 242.074 372.399 241.538 372.399 240.802C372.399 240.166 372.277 239.676 372.031 239.33C371.786 238.985 371.44 238.812 370.994 238.812C370.558 238.812 370.217 238.985 369.971 239.33C369.735 239.676 369.617 240.207 369.617 240.925ZM377.478 235.828V237.477H378.638V238.812H377.478V242.179C377.478 242.424 377.524 242.601 377.615 242.71C377.715 242.819 377.901 242.874 378.174 242.874C378.374 242.874 378.551 242.86 378.706 242.833V244.196C378.351 244.305 377.987 244.359 377.615 244.359C376.351 244.359 375.705 243.723 375.678 242.451V238.812H374.696V237.477H375.678V235.828H377.478ZM382.169 241.688L383.41 237.477H385.347L382.633 245.286L382.483 245.64C382.083 246.522 381.419 246.962 380.492 246.962C380.228 246.962 379.96 246.921 379.687 246.84V245.477L379.96 245.49C380.305 245.49 380.56 245.436 380.724 245.327C380.896 245.227 381.028 245.054 381.119 244.809L381.337 244.25L378.964 237.477H380.914L382.169 241.688ZM392.151 240.925C392.151 241.961 391.915 242.792 391.442 243.419C390.969 244.046 390.332 244.359 389.532 244.359C388.841 244.359 388.287 244.123 387.868 243.651V246.84H386.068V237.477H387.746L387.8 238.145C388.237 237.618 388.809 237.354 389.519 237.354C390.346 237.354 390.992 237.663 391.455 238.281C391.919 238.899 392.151 239.748 392.151 240.83V240.925ZM390.351 240.789C390.351 240.162 390.237 239.68 390.01 239.344C389.791 238.999 389.469 238.826 389.041 238.826C388.477 238.826 388.086 239.044 387.868 239.48V242.233C388.086 242.678 388.482 242.901 389.055 242.901C389.919 242.901 390.351 242.197 390.351 240.789ZM396.38 244.359C395.389 244.359 394.58 244.055 393.953 243.446C393.334 242.837 393.025 242.029 393.025 241.02V240.843C393.025 240.171 393.157 239.567 393.421 239.031C393.684 238.495 394.053 238.081 394.525 237.79C395.007 237.5 395.557 237.354 396.176 237.354C397.103 237.354 397.831 237.65 398.358 238.24C398.895 238.822 399.163 239.644 399.163 240.707V241.443H394.853C394.916 241.888 395.094 242.242 395.385 242.506C395.676 242.769 396.048 242.901 396.503 242.901C397.194 242.901 397.735 242.651 398.126 242.151L399.013 243.146C398.74 243.528 398.372 243.828 397.908 244.046C397.453 244.255 396.944 244.359 396.38 244.359ZM396.176 238.812C395.812 238.812 395.517 238.935 395.289 239.18C395.071 239.426 394.935 239.771 394.88 240.216H397.39V240.08C397.381 239.68 397.271 239.371 397.062 239.153C396.853 238.926 396.558 238.812 396.176 238.812ZM403.085 240.802C403.085 240.13 403.213 239.53 403.467 239.003C403.731 238.476 404.104 238.072 404.586 237.79C405.077 237.5 405.641 237.354 406.277 237.354C407.195 237.354 407.941 237.636 408.514 238.199C409.087 238.753 409.41 239.508 409.482 240.462L409.496 240.925C409.496 241.961 409.205 242.792 408.623 243.419C408.041 244.046 407.264 244.359 406.291 244.359C405.318 244.359 404.54 244.05 403.958 243.433C403.376 242.806 403.085 241.956 403.085 240.884V240.802ZM404.899 240.925C404.899 241.57 405.018 242.061 405.254 242.397C405.5 242.733 405.845 242.901 406.291 242.901C406.727 242.901 407.068 242.737 407.314 242.41C407.559 242.074 407.682 241.538 407.682 240.802C407.682 240.166 407.559 239.676 407.314 239.33C407.068 238.985 406.723 238.812 406.277 238.812C405.841 238.812 405.5 238.985 405.254 239.33C405.018 239.676 404.899 240.207 404.899 240.925ZM411.097 244.237V238.812H410.087V237.477H411.097V236.905C411.097 236.15 411.315 235.564 411.751 235.146C412.188 234.729 412.797 234.52 413.579 234.52C413.825 234.52 414.129 234.56 414.493 234.642L414.479 236.046C414.325 236.01 414.138 235.991 413.92 235.991C413.247 235.991 412.911 236.309 412.911 236.945V237.477H414.247V238.812H412.911V244.237H411.097Z" fill="#001350"/>
</g>
</g>
<defs>
<filter id="filter0_f_1459_5806" x="329.188" y="83.2578" width="195.562" height="100.695" filterUnits="userSpaceOnUse" color-interpolation-filters="sRGB">
<feFlood flood-opacity="0" result="BackgroundImageFix"/>
<feBlend mode="normal" in="SourceGraphic" in2="BackgroundImageFix" result="shape"/>
<feGaussianBlur stdDeviation="2" result="effect1_foregroundBlur_1459_5806"/>
</filter>
<filter id="filter1_f_1459_5806" x="329.188" y="308.145" width="195.562" height="83.0859" filterUnits="userSpaceOnUse" color-interpolation-filters="sRGB">
<feFlood flood-opacity="0" result="BackgroundImageFix"/>
<feBlend mode="normal" in="SourceGraphic" in2="BackgroundImageFix" result="shape"/>
<feGaussianBlur stdDeviation="2" result="effect1_foregroundBlur_1459_5806"/>
</filter>
<clipPath id="clip0_1459_5806">
<rect width="838" height="471" fill="white"/>
</clipPath>
</defs>
</svg>
